<?xml version="1.0" encoding="UTF-8" standalone="no"?><!DOCTYPE svg PUBLIC "-//W3C//DTD SVG 1.1//EN" "http://www.w3.org/Graphics/SVG/1.1/DTD/svg11.dtd"><svg width="100%" height="100%" viewBox="0 0 2000 2000" version="1.1" xmlns="http://www.w3.org/2000/svg" xmlns:xlink="http://www.w3.org/1999/xlink" xml:space="preserve" xmlns:serif="http://www.serif.com/" style="fill-rule:evenodd;clip-rule:evenodd;stroke-linecap:round;stroke-linejoin:round;stroke-miterlimit:1.5;"><path d="M185.185,814.815c49.114,0 96.217,19.511 130.946,54.24c34.729,34.729 54.239,81.832 54.239,130.946c-0,-0 0,436.149 0,535.555c0,11.046 -8.954,20 -20,20l-330.37,0c-11.046,-0 -20,-8.954 -20,-20c0,-99.406 0,-535.555 0,-535.555c-0,-49.114 19.51,-96.217 54.239,-130.946c34.729,-34.729 81.832,-54.24 130.946,-54.24Zm0,0c-102.275,-0 -185.185,-82.91 -185.185,-185.185c0,-102.275 82.91,-185.185 185.185,-185.185c102.275,0 185.185,82.91 185.185,185.185c-0,102.275 -82.91,185.185 -185.185,185.185Z" style="fill:#92b9db;stroke:#2e81c8;stroke-width:1px;"/><path d="M814.815,1370.37c0,-0 0,117.297 0,165.185c0,11.046 -8.954,20 -20,20c-64.407,0 -265.963,0 -330.37,0c-11.046,-0 -20,-8.954 -20,-20c0,-136.89 0,-934.221 0,-1071.111c-0,-11.046 8.954,-20 20,-20l330.37,-0c11.046,0 20,8.954 20,20l0,330.37c0,11.046 8.954,20 20,20l330.37,0c11.046,0 20,8.954 20,20l0,330.37c-0,11.046 -8.954,20 -20,20c-47.889,-0 -165.185,-0 -165.185,-0c49.114,0 96.217,19.511 130.946,54.239c34.729,34.729 54.239,81.832 54.239,130.946c-0,102.275 -82.91,185.185 -185.185,185.185c-102.275,-0 -185.185,-82.91 -185.185,-185.185Z" style="fill:#92b9db;stroke:#2e81c8;stroke-width:1px;"/><path d="M1814.815,1555.556l-370.37,0c-49.114,0 -96.217,-19.511 -130.946,-54.24c-34.729,-34.729 -54.239,-81.832 -54.239,-130.946l-0,-370.37c-0,-49.114 19.51,-96.217 54.239,-130.946c34.729,-34.729 81.832,-54.24 130.946,-54.24c49.114,0 96.217,19.511 130.946,54.24c34.729,34.729 54.239,81.832 54.239,130.946c-0,-49.114 19.51,-96.217 54.239,-130.946c34.729,-34.729 81.832,-54.24 130.946,-54.24c49.114,0 96.217,19.511 130.946,54.24c34.729,34.729 54.239,81.832 54.239,130.946l0,370.37c0,49.114 -19.51,96.217 -54.239,130.946c-34.729,34.729 -81.832,54.24 -130.946,54.24Z" style="fill:#92b9db;stroke:#2e81c8;stroke-width:1px;"/></svg>